<svg xmlns="http://www.w3.org/2000/svg" version="1.1" xmlns:xlink="http://www.w3.org/1999/xlink" xmlns:svgjs="http://svgjs.dev/svgjs" width="1000" height="1000" viewBox="0 0 1000 1000"><g transform="matrix(1,0,0,1,-0.14221556886212738,-0.14221556886229791)"><svg viewBox="0 0 334 334" data-background-color="#ffffff" preserveAspectRatio="xMidYMid meet" height="1000" width="1000" xmlns="http://www.w3.org/2000/svg" xmlns:xlink="http://www.w3.org/1999/xlink"><g id="tight-bounds" transform="matrix(1,0,0,1,0.04749999999998522,0.04750000000001364)"><svg viewBox="0 0 333.90454557049503 333.90454557049503" height="333.90454557049503" width="333.90454557049503"><g><svg></svg></g><g><svg viewBox="0 0 333.90454557049503 333.90454557049503" height="333.90454557049503" width="333.90454557049503"><g><path d="M0 166.952c0-92.205 74.747-166.952 166.952-166.952 92.205 0 166.952 74.747 166.953 166.952 0 92.205-74.747 166.952-166.953 166.953-92.205 0-166.952-74.747-166.952-166.953zM166.952 316.63c82.665 0 149.677-67.013 149.678-149.678 0-82.665-67.013-149.677-149.678-149.677-82.665 0-149.677 67.013-149.677 149.677 0 82.665 67.013 149.677 149.677 149.678z" data-fill-palette-color="tertiary" fill="#f0122d" stroke="transparent"></path><ellipse rx="160.27418187383762" ry="160.27418187383762" cx="166.95227278524752" cy="166.95227278524752" fill="#f0122d" stroke="transparent" stroke-width="0" fill-opacity="1" data-fill-palette-color="tertiary"></ellipse></g><g transform="matrix(1,0,0,1,82.55276155150007,71.17305217166896)"><svg viewBox="0 0 168.7990224674949 191.55844122715712" height="191.55844122715712" width="168.7990224674949"><g><svg viewBox="0 0 168.7990224674949 191.55844122715712" height="191.55844122715712" width="168.7990224674949"><g><svg viewBox="0 0 168.7990224674949 191.55844122715712" height="191.55844122715712" width="168.7990224674949"><g><svg viewBox="0 0 168.7990224674949 191.55844122715712" height="191.55844122715712" width="168.7990224674949"><g><svg viewBox="0 0 168.7990224674949 191.55844122715712" height="191.55844122715712" width="168.7990224674949"><g><svg viewBox="0 0 168.7990224674949 191.55844122715712" height="191.55844122715712" width="168.7990224674949"><g transform="matrix(1,0,0,1,0,0)"><svg width="168.7990224674949" viewBox="0.98 -37.99 34.760000000000005 39.45" height="191.55844122715712" data-palette-color="#ffffff"><path d="M17.77 1.46L17.77 1.46Q14.89 1.34 12.6 0.96 10.3 0.59 8.17-0.26 6.03-1.1 4.58-2.38 3.13-3.66 2.16-5.66 1.2-7.67 0.98-10.3L0.98-10.3Q0.98-10.77 1.46-10.84L1.46-10.84Q1.61-10.79 1.95-10.79L1.95-10.79Q3.98-10.79 8.11-10.89 12.23-10.99 14.26-10.99L14.26-10.99Q14.77-10.99 15.06-10.66 15.36-10.33 15.54-9.85 15.72-9.38 15.98-8.9 16.24-8.42 16.86-8.09 17.48-7.76 18.46-7.76L18.46-7.76Q19.65-7.76 20.57-8.44 21.48-9.11 21.48-10.25L21.48-10.25Q21.48-11.01 20.7-11.65 19.92-12.28 18.64-12.68 17.36-13.09 16.2-13.37 15.04-13.65 13.82-13.85 12.6-14.06 12.4-14.11L12.4-14.11Q6.47-15.72 3.87-18.12 1.27-20.51 1.27-24.66L1.27-24.66Q1.27-27.59 2.34-29.92 3.42-32.25 5.15-33.73 6.88-35.21 9.25-36.19 11.62-37.18 14.04-37.59 16.46-37.99 19.04-37.99L19.04-37.99Q25.9-37.99 29.98-35.45L29.98-35.45Q31.47-33.96 32.17-33.19 32.86-32.42 33.51-31.4 34.16-30.37 34.41-29.38 34.67-28.39 34.77-26.95L34.77-26.95 33.89-26.07Q28.88-25.88 22.66-25.88L22.66-25.88Q21.88-25.88 21.4-26.05 20.92-26.22 20.76-26.49 20.61-26.76 20.45-27.05 20.29-27.34 20.15-27.61 20.02-27.88 19.59-28.05 19.17-28.22 18.46-28.22L18.46-28.22Q18.26-28.22 17.83-28.15 17.41-28.08 16.83-27.92 16.26-27.76 15.84-27.43 15.43-27.1 15.43-26.66L15.43-26.66Q15.43-26.12 15.98-25.68 16.53-25.24 17.14-25.05 17.75-24.85 18.65-24.62 19.56-24.39 19.78-24.32L19.78-24.32Q25.1-22.97 26.12-22.66L26.12-22.66Q31.47-20.97 33.69-18.24L33.69-18.24Q35.74-15.7 35.74-11.87L35.74-11.87Q35.74-9.55 35.14-7.64 34.55-5.74 33.57-4.42 32.59-3.1 31.13-2.08 29.66-1.05 28.16-0.44 26.66 0.17 24.76 0.59 22.85 1 21.25 1.18 19.65 1.37 17.77 1.46Z" opacity="1" transform="matrix(1,0,0,1,0,0)" fill="#ffffff" class="undefined-text-0" data-fill-palette-color="quaternary" id="text-0"></path></svg></g></svg></g></svg></g></svg></g><g></g></svg></g></svg></g></svg></g></svg></g><defs></defs></svg><rect width="333.90454557049503" height="333.90454557049503" fill="none" stroke="none" visibility="hidden"></rect></g></svg></g></svg>