<svg xmlns="http://www.w3.org/2000/svg" version="1.1" xmlns:xlink="http://www.w3.org/1999/xlink" xmlns:svgjs="http://svgjs.dev/svgjs" width="1000" height="999" viewBox="0 0 1000 999"><g transform="matrix(1,0,0,1,-0.215743440233382,-0.21552769679306039)"><svg viewBox="0 0 343 343" data-background-color="#ffffff" preserveAspectRatio="xMidYMid meet" height="999" width="1000" xmlns="http://www.w3.org/2000/svg" xmlns:xlink="http://www.w3.org/1999/xlink"><g id="tight-bounds" transform="matrix(1,0,0,1,0.0740000000000407,0.07400000000001228)"><svg viewBox="0 0 342.85155851775386 342.85155851775386" height="342.85155851775386" width="342.85155851775386"><g><svg></svg></g><g><svg viewBox="0 0 342.85155851775386 342.85155851775386" height="342.85155851775386" width="342.85155851775386"><g><path d="M0 171.426c0-94.676 76.75-171.426 171.426-171.426 94.676 0 171.426 76.75 171.426 171.426 0 94.676-76.75 171.426-171.426 171.426-94.676 0-171.426-76.75-171.426-171.426zM171.426 333.676c89.608 0 162.25-72.642 162.25-162.25 0-89.608-72.642-162.25-162.25-162.25-89.608 0-162.25 72.642-162.25 162.25 0 89.608 72.642 162.25 162.25 162.25z" data-fill-palette-color="tertiary" fill="#ea612b" stroke="transparent"></path><ellipse rx="164.56874808852186" ry="164.56874808852186" cx="171.42577925887693" cy="171.42577925887693" fill="#ea612b" stroke="transparent" stroke-width="0" fill-opacity="1" data-fill-palette-color="tertiary"></ellipse></g><g transform="matrix(1,0,0,1,64.84655864529837,120.55145344800688)"><svg viewBox="0 0 213.1584412271571 101.7486516217401" height="101.7486516217401" width="213.1584412271571"><g><svg viewBox="0 0 213.1584412271571 101.7486516217401" height="101.7486516217401" width="213.1584412271571"><g><svg viewBox="0 0 213.1584412271571 101.7486516217401" height="101.7486516217401" width="213.1584412271571"><g><svg viewBox="0 0 213.1584412271571 101.7486516217401" height="101.7486516217401" width="213.1584412271571"><g><svg viewBox="0 0 213.1584412271571 101.7486516217401" height="101.7486516217401" width="213.1584412271571"><g><svg viewBox="0 0 213.1584412271571 101.7486516217401" height="101.7486516217401" width="213.1584412271571"><g transform="matrix(1,0,0,1,0,0)"><svg width="213.1584412271571" viewBox="2.37 -32.4 67.86999999999999 32.4" height="101.7486516217401" data-palette-color="#ffffff"><path d="M27.22 0L22.88 0 22.88-12.13 8.86-12.13 2.37-18.63 2.37-25.93 8.86-32.4 12.52-32.4 12.52-20.9 27.42-20.9 33.69-14.4 33.69-6.47 27.22 0ZM22.88-26.56L14.23-26.56 14.23-32.4 27.2-32.4 32.81-26.76 32.81-23.32 22.88-23.32 22.88-26.56ZM2.37-6.47L2.37-9.72 13.16-9.72 13.16-5.86 21.17-5.86 21.17 0 7.81 0 2.37-6.47ZM63.74 0L51.41 0 51.41-6.47 59.42-6.47 59.42-25.93 51.41-25.93 51.41-32.4 63.74-32.4 70.24-25.93 70.24-6.47 63.74 0ZM38.91 0L38.91-32.4 49.7-32.4 49.7 0 38.91 0Z" opacity="1" transform="matrix(1,0,0,1,0,0)" fill="#ffffff" class="undefined-text-0" data-fill-palette-color="quaternary" id="text-0"></path></svg></g></svg></g></svg></g></svg></g><g></g></svg></g></svg></g></svg></g></svg></g><defs></defs></svg><rect width="342.85155851775386" height="342.85155851775386" fill="none" stroke="none" visibility="hidden"></rect></g></svg></g></svg>